HIERARCHY
ROOT Pelvis
{
	OFFSET 0.000000 0.000000 0.000000
	CHANNELS 6 Xposition Yposition Zposition Zrotation Yrotation Xrotation 
	JOINT Left_hip
	{
		OFFSET 0.070241 -0.085575 -0.010474
		CHANNELS 3 Zrotation Yrotation Xrotation
		JOINT Left_knee
		{
			OFFSET 0.032125 -0.356873 -0.000555
			CHANNELS 3 Zrotation Yrotation Xrotation
			JOINT Left_ankle
			{
				OFFSET -0.010961 -0.370212 -0.042278
				CHANNELS 3 Zrotation Yrotation Xrotation
				JOINT Left_foot
				{
					OFFSET 0.023322 -0.052281 0.110104
					CHANNELS 3 Zrotation Yrotation Xrotation
					End Site
					{
						OFFSET 0.000000 0.000000 0.000000
					}
				}
			}
		}
	}
	JOINT Right_hip
	{
		OFFSET -0.068518 -0.084320 -0.007402
		CHANNELS 3 Zrotation Yrotation Xrotation
		JOINT Right_knee
		{
			OFFSET -0.037345 -0.364815 -0.003619
			CHANNELS 3 Zrotation Yrotation Xrotation
			JOINT Right_ankle
			{
				OFFSET 0.013394 -0.370006 -0.039954
				CHANNELS 3 Zrotation Yrotation Xrotation
				JOINT Right_foot
				{
					OFFSET -0.019600 -0.045455 0.113223
					CHANNELS 3 Zrotation Yrotation Xrotation
					End Site
					{
						OFFSET 0.000000 0.000000 0.000000
					}
				}
			}
		}
	}
	JOINT Spine1
	{
		OFFSET -0.002404 0.098129 -0.018169
		CHANNELS 3 Zrotation Yrotation Xrotation
		JOINT Spine2
		{
			OFFSET 0.003989 0.127209 -0.001742
			CHANNELS 3 Zrotation Yrotation Xrotation
			JOINT Spine3
			{
				OFFSET 0.001758 0.046641 0.023475
				CHANNELS 3 Zrotation Yrotation Xrotation
				JOINT Neck
				{
					OFFSET -0.003759 0.194901 -0.039982
					CHANNELS 3 Zrotation Yrotation Xrotation
					JOINT Head
					{
						OFFSET 0.003999 0.063756 0.047665
						CHANNELS 3 Zrotation Yrotation Xrotation
						End Site
						{
							OFFSET 0.000000 0.000000 0.000000
						}
					}
				}
				JOINT Left_collar
				{
					OFFSET 0.071816 0.109048 -0.028973
					CHANNELS 3 Zrotation Yrotation Xrotation
					JOINT Left_shoulder
					{
						OFFSET 0.084027 0.032269 -0.006525
						CHANNELS 3 Zrotation Yrotation Xrotation
						JOINT Left_elbow
						{
							OFFSET 0.243854 -0.013992 -0.025905
							CHANNELS 3 Zrotation Yrotation Xrotation
							JOINT Left_wrist
							{
								OFFSET 0.232156 0.008196 -0.000339
								CHANNELS 3 Zrotation Yrotation Xrotation
								JOINT Left_palm
								{
									OFFSET 0.075377 -0.009461 -0.012494
									CHANNELS 3 Zrotation Yrotation Xrotation
									End Site
									{
										OFFSET 0.000000 0.000000 0.000000
									}
								}
							}
						}
					}
				}
				JOINT Right_collar
				{
					OFFSET -0.073768 0.107001 -0.033755
					CHANNELS 3 Zrotation Yrotation Xrotation
					JOINT Right_shoulder
					{
						OFFSET -0.086837 0.032868 -0.009431
						CHANNELS 3 Zrotation Yrotation Xrotation
						JOINT Right_elbow
						{
							OFFSET -0.236446 -0.012544 -0.018747
							CHANNELS 3 Zrotation Yrotation Xrotation
							JOINT Right_wrist
							{
								OFFSET -0.236110 0.006124 -0.004327
								CHANNELS 3 Zrotation Yrotation Xrotation
								JOINT Right_palm
								{
									OFFSET -0.074800 -0.006875 -0.009610
									CHANNELS 3 Zrotation Yrotation Xrotation
									End Site
									{
										OFFSET 0.000000 0.000000 0.000000
									}
								}
							}
						}
					}
				}
			}
		}
	}
}
MOTION
Frames: 13
Frame Time: 0.100000
-0.249908 -0.112822 0.572505 27.667791 67.066025 -124.345808 5.884776 11.573611 -15.510442 1.864323 12.804678 -8.556915 -9.679589 20.282848 12.731896 15.133121 1.297491 -6.544233 5.315914 0.540220 -21.624467 -0.569697 -0.367092 -11.547913 0.029915 -12.667148 0.383224 0.469262 5.112303 6.819271 2.498176 0.938243 13.180538 -2.278181 -1.470082 3.218345 -1.482374 4.024337 -4.772580 -4.459397 -5.055221 -0.074619 2.065441 -4.417016 5.186566 -20.214915 -17.689306 -3.646663 -32.917246 -23.494623 21.732738 -5.295731 -50.109986 37.584054 46.980342 -28.947214 17.684237 -3.130021 -6.738737 2.396327 19.231197 23.460661 3.754562 21.793742 26.068642 10.573328 16.161609 43.172573 44.217800 -43.635812 32.064271 29.902804 6.441787 7.741733 -0.693737 
-0.261906 -0.112483 0.565936 25.088512 66.934170 -126.028341 5.859968 11.191084 -18.378615 1.500976 12.632227 -2.469380 -9.319719 19.155771 10.488987 13.879030 1.853036 -6.504675 4.276570 -0.163685 -21.101912 -0.404142 -0.162177 -11.840277 0.221057 -12.266038 -0.305331 -0.029283 4.640251 6.602385 2.520324 1.368650 13.928920 -2.377030 -1.972258 3.400969 -1.410098 3.998161 -4.674840 -5.043292 -5.294407 0.574543 2.493012 -4.508151 4.870131 -20.733134 -19.645221 -2.872704 -34.384216 -24.022768 21.864863 -3.512156 -45.386228 34.772663 45.211241 -28.038405 17.723536 -2.816801 -6.482755 2.326685 19.289926 24.580607 4.001731 23.073082 25.148632 10.258748 14.613078 41.528559 42.182636 -42.427400 31.384618 30.225390 6.719788 7.690670 -1.069549 
-0.276789 -0.111576 0.556209 24.825073 67.045879 -127.431068 8.062776 10.208743 -27.753593 1.890873 14.015056 21.033714 -7.057757 17.620817 4.754032 11.242690 3.805629 -7.441961 3.475975 -0.912030 -18.417881 0.079757 0.397050 -11.350601 -0.925906 -10.647571 -1.903487 0.300164 2.340252 6.202105 2.410854 3.085011 15.385225 -2.202634 -2.605445 3.471004 -1.116690 3.877781 -5.053529 -5.018785 -4.828598 1.796601 2.152525 -5.713868 3.789100 -22.107591 -22.473849 -1.684081 -38.860881 -24.321758 22.475949 0.616859 -34.793011 28.797494 40.457462 -25.658263 18.043964 -2.015211 -5.388224 3.268018 19.852379 26.440687 4.324081 26.312649 23.042603 10.487834 11.984794 38.652917 40.729676 -39.147700 29.644313 31.905019 7.948477 7.206444 -0.947697 
-0.295872 -0.106639 0.534185 28.394607 68.353851 -126.946327 9.582608 5.522574 -40.069703 -2.979240 9.990459 45.082773 -4.564291 11.058152 -4.906408 8.471339 6.415769 -7.654726 2.673662 -1.274482 -13.713227 0.051221 2.147062 -10.000159 -1.671460 -9.186013 -3.972326 -0.288223 0.218817 5.347748 1.906612 5.811812 17.322083 -2.332461 -3.092054 3.862423 -0.930387 4.052647 -5.866595 -4.632193 -4.584531 2.511990 2.347234 -6.632127 2.366072 -24.172340 -22.891694 -1.343137 -44.209669 -23.716480 23.253457 5.423814 -26.251309 24.754791 29.084884 -22.758857 25.959207 -1.475505 -4.924352 2.148285 21.386469 27.323900 5.120342 31.375086 21.428462 11.364450 6.649856 33.750766 36.910266 -29.590119 24.671919 34.426720 8.138745 7.653355 -0.475032 
-0.332381 -0.094770 0.499843 38.964118 69.239710 -120.333145 9.366920 2.822663 -43.896127 -2.142080 7.682337 31.353653 -2.113383 11.709957 -5.060735 6.258410 6.340196 -5.334772 3.374136 -1.248233 -6.914334 -0.798276 4.900964 -9.677578 0.821520 -10.560738 -7.321574 -3.024032 3.307965 8.671438 1.524889 8.492636 17.355872 -2.325829 -3.542708 3.750319 -0.162965 4.635448 -5.608661 -4.973384 -5.141384 -0.403766 3.952816 -6.881918 2.984142 -24.530310 -21.781673 -0.688580 -50.142066 -20.800135 21.934025 7.515705 -21.931644 13.701658 14.778677 -11.933279 22.820035 -6.370743 -7.167081 -1.996509 23.934074 27.412707 7.502728 39.129991 19.743509 12.363767 -1.075498 27.128512 23.203757 -18.349688 13.318426 28.286989 10.724462 9.748142 -3.038984 
-0.387380 -0.068469 0.454326 55.939091 69.154899 -107.777349 12.013484 2.232117 -43.612594 -2.684765 3.347687 26.654957 -2.591102 9.457938 1.821193 5.849446 6.831462 -8.431346 4.689536 -1.025114 0.880176 -1.531590 7.469026 -8.503667 -0.140450 -11.513200 -12.020785 -2.611682 4.254471 11.260791 0.911181 9.884195 14.855266 -1.225898 -3.514069 2.977333 0.804793 4.393695 -5.614917 -2.470884 -3.485354 -5.908895 2.939379 -6.738812 5.082168 -26.314749 -17.371360 0.199418 -55.286890 -15.192818 20.337536 8.469492 -16.758419 5.421692 9.754569 -6.757605 16.589572 -9.778565 -8.187311 -1.169958 28.763417 24.536188 9.406383 45.283254 16.556886 14.112799 -5.528508 21.163606 14.621655 -13.860529 7.845314 23.031582 12.708256 10.539341 -2.415198 
-0.447596 -0.064409 0.400538 61.542393 70.366702 -102.983163 9.316175 2.508358 -38.591117 -3.390031 5.676410 27.611319 1.514250 10.340291 -2.729029 1.036477 6.344942 -8.207442 1.632016 -2.411765 0.043306 -1.086899 6.276987 1.855984 2.170265 -11.492577 -11.059125 -2.816548 4.819932 9.275277 -0.499318 9.283384 9.705355 -1.061411 -3.259001 1.403789 0.035890 3.804620 -5.740851 -1.072517 -4.043734 -9.123787 2.401339 -7.349786 8.013500 -26.803952 -15.118184 0.702408 -56.109348 -9.890333 20.308000 5.622537 -9.459281 10.097726 4.429930 -5.609175 20.225715 -8.740060 -8.887958 -3.760647 29.948426 20.587613 9.660581 50.265821 8.935568 15.396505 -4.246783 21.047422 16.745245 -11.093916 7.739127 21.593410 13.364290 10.637833 -3.464370 
-0.497118 -0.079368 0.352794 58.756933 70.660252 -108.915086 5.259028 1.131937 -26.341920 -3.725296 2.114154 18.130166 2.519463 12.616857 -0.353264 1.696718 5.536801 -9.488318 0.409099 -4.264540 0.009030 -1.573279 1.404941 19.830037 2.413719 -17.346551 -14.097985 -4.013516 6.540162 8.557978 -0.046503 7.225183 6.365152 -1.085503 -3.187943 0.991369 -0.488005 3.287681 -4.253867 -1.725065 -5.287122 -6.855925 2.055004 -6.201126 10.099041 -24.192911 -13.888890 0.688522 -55.806408 -9.502933 18.984725 4.263959 -7.659460 14.738878 -4.451053 -0.515719 25.451276 -12.154396 -11.624654 -7.473129 27.743619 18.502500 8.535686 53.591855 3.717125 16.676188 -2.986029 23.127423 20.721715 -1.645575 4.822824 20.707448 16.218250 12.563979 -5.128405 
-0.536519 -0.087309 0.318919 57.811269 70.578303 -112.663431 2.703586 0.692663 -14.076301 -3.046791 -2.338605 6.492799 3.950664 14.435746 2.727188 3.470252 5.088506 -11.190022 1.180149 -0.824844 -5.635174 4.406320 3.024495 49.286155 3.060979 -13.004189 -15.023385 -3.247962 6.985924 5.099815 -0.231371 3.759013 2.960889 0.171310 -2.692290 1.622147 -1.141295 2.464455 -4.079751 -0.513899 -5.692279 -4.413618 2.091785 -4.731688 13.131643 -22.841087 -10.043319 -0.626178 -52.304490 -8.361254 17.975867 3.469855 -14.377735 15.903221 -1.690890 -2.338612 24.312064 -13.560296 -11.715341 -7.097702 27.359120 14.490520 6.876402 52.742130 2.651305 19.197013 -0.964462 27.149179 23.219151 -1.988150 7.344904 17.359289 16.459349 10.689909 -2.422742 
-0.566492 -0.081419 0.297658 56.385095 71.671817 -116.311485 0.320042 -0.245195 -6.380696 -2.666972 -6.366296 2.001932 4.673845 15.750265 1.661464 4.885650 4.880893 -10.222648 1.778113 1.174104 -13.437045 5.647909 -0.549845 67.719172 0.246266 -13.427436 -15.775442 1.501103 6.545904 4.070489 -1.300948 0.453076 1.676470 1.317544 -2.744798 2.673550 -1.574544 1.104013 -4.852417 0.171075 -5.706590 -3.614777 2.069576 -3.307721 14.236168 -23.524007 -7.001569 -0.375185 -46.375180 -8.026607 17.060859 3.211848 -21.260209 11.539487 7.091140 -6.646088 16.861754 -13.925193 -10.000129 -4.357855 28.878762 11.129152 5.249032 50.947452 2.501877 20.066663 -1.341283 32.167199 19.104823 -10.484698 10.899381 8.944048 16.434755 7.996806 2.457026 
-0.592008 -0.071963 0.280554 54.799851 73.090500 -120.337578 -2.063998 -0.150162 -1.208495 -3.201313 -8.431323 2.131780 4.739933 16.000929 -1.228047 4.526629 5.317310 -9.294554 2.500192 3.691014 -21.317938 5.690705 -0.723100 65.893826 -0.976524 -13.918946 -16.308300 2.431959 5.999272 4.437539 -1.487942 -1.774139 2.489734 1.468996 -2.615183 3.257541 -1.759227 0.479861 -5.142742 -0.856593 -5.420719 -3.053492 2.522125 -2.560071 14.170928 -23.788711 -6.689244 -0.771681 -44.814531 -9.696998 16.515568 4.789273 -18.257568 7.323428 9.394898 -6.894226 15.932450 -11.706097 -8.769450 -4.170017 29.360617 9.872192 4.235167 51.158887 2.462702 19.626968 -3.698990 33.134497 14.378196 -13.966966 11.616937 6.115758 15.492720 6.583811 3.842105 
-0.626564 -0.065684 0.264290 45.804539 72.525794 -131.395034 -4.792160 -0.091438 4.431906 -1.935160 -9.755821 1.709651 4.510300 14.943755 -3.118426 1.492519 6.502935 -8.613592 3.497427 5.726821 -23.160394 4.355055 3.251438 40.155668 -0.271668 -13.183667 -10.590695 1.294697 4.971560 5.272595 -1.266165 -3.055008 2.902158 1.361663 -3.292422 4.192809 -1.586211 -0.124822 -5.048467 -2.585530 -6.505072 -1.320752 3.691364 -2.303775 13.513625 -24.393918 -8.655497 -0.439540 -47.738007 -11.022828 16.877257 6.666866 -10.742347 3.411862 7.467350 -5.062496 17.680696 -8.575941 -7.633454 -4.125996 28.373765 9.591372 3.691529 52.861256 1.487814 18.765576 -5.174672 28.201451 12.824529 -11.272256 10.035952 11.265437 14.374508 6.536770 2.185667 
-0.673952 -0.051396 0.248330 33.613623 71.142822 -143.610501 -7.493321 0.581051 10.091628 -0.727063 -9.953583 -0.960138 4.223503 13.467888 -6.378335 -1.425767 7.624314 -5.538702 3.442325 2.595309 -23.300997 0.150780 -1.830212 13.645817 -2.582992 -14.953996 3.223669 4.428386 2.873841 6.273743 -1.882224 -3.649478 0.261082 1.761533 -3.449916 6.354484 -1.712326 -0.760281 -5.806030 -2.518729 -8.160574 0.616416 2.797788 -3.225672 12.594414 -26.510952 -8.075523 0.858655 -51.589764 -10.618740 19.956119 6.328334 -10.233489 2.003621 5.337359 -4.286295 18.721349 -6.884681 -6.703735 -5.316650 28.506905 7.348241 3.480338 53.339267 -1.107748 17.945638 -5.253387 22.290684 11.116127 -8.383305 7.463838 15.011945 14.134719 7.643432 0.055652 
